<svg xmlns="http://www.w3.org/2000/svg" width="200" height="100" viewBox="0 0 200 100">
  <rect width="200" height="100" fill="none"/>
  <path d="M50 30C50 20.1 58.1 12 68 12H132C141.9 12 150 20.1 150 30V70C150 79.9 141.9 88 132 88H68C58.1 88 50 79.9 50 70V30Z" fill="#000" />
  <path d="M30 30C30 20.1 38.1 12 48 12H52C42.1 12 34 20.1 34 30V70C34 79.9 42.1 88 52 88H48C38.1 88 30 79.9 30 70V30Z" fill="#000" />
  <path d="M170 30C170 20.1 161.9 12 152 12H148C157.9 12 166 20.1 166 30V70C166 79.9 157.9 88 148 88H152C161.9 88 170 79.9 170 70V30Z" fill="#000" />
</svg>